<svg id="svg" xmlns="http://www.w3.org/2000/svg" xmlns:xlink="http://www.w3.org/1999/xlink" width="400" height="260" viewBox="0, 0, 400,260">
    <g id="svgg">
        <path id="path0" d="M82.761 3.000 C 78.572 10.346,71.223 37.319,70.204 49.087 C 69.589 56.189,62.705 85.400,54.906 114.000 C 47.106 142.600,39.515 175.000,38.037 186.000 C 35.767 202.892,32.602 208.543,17.675 222.364 C -2.047 240.623,-7.028 260.000,8.000 260.000 C 13.169 260.000,16.000 257.333,16.000 252.465 C 16.000 236.115,68.043 200.000,91.605 200.000 C 104.874 200.000,111.925 192.898,103.701 187.815 C 97.592 184.040,79.804 186.740,61.154 194.274 L 48.307 199.463 50.545 186.732 C 51.776 179.729,62.513 138.900,74.405 96.000 C 86.297 53.100,96.021 13.950,96.013 9.000 C 96.001 0.515,86.605 -3.740,82.761 3.000 M199.207 72.720 C 195.471 75.624,187.842 86.100,182.255 96.000 L 172.096 114.000 172.048 97.000 C 171.998 79.359,172.164 79.496,149.504 78.333 C 142.910 77.995,124.111 124.841,124.035 141.800 C 124.008 147.766,122.897 148.497,119.309 144.909 C 115.720 141.320,115.835 137.606,119.798 129.109 C 126.576 114.573,135.489 76.823,132.782 74.115 C 126.081 67.415,119.651 74.720,113.756 95.730 C 107.170 119.200,91.954 141.862,88.911 132.732 C 88.067 130.201,91.117 118.133,95.688 105.915 C 105.331 80.141,106.064 72.000,98.740 72.000 C 91.882 72.000,75.907 117.668,75.960 137.126 C 76.005 153.936,82.649 159.145,95.365 152.340 C 101.254 149.188,103.776 149.329,104.959 152.877 C 109.997 167.990,135.470 158.879,139.991 140.348 C 149.464 101.518,159.689 94.404,151.563 132.297 C 147.974 149.031,148.165 153.646,152.563 156.432 C 160.631 161.545,164.000 160.744,164.000 153.714 C 164.000 148.000,164.571 148.000,170.286 153.714 C 173.743 157.171,179.143 160.000,182.286 160.000 C 185.429 160.000,188.000 162.507,188.000 165.572 C 188.000 171.627,198.705 177.421,201.402 172.825 C 202.313 171.271,204.345 163.700,205.917 156.000 C 207.489 148.300,212.331 135.826,216.677 128.280 C 225.020 113.795,240.547 75.214,238.755 73.422 C 234.130 68.797,204.921 68.279,199.207 72.720 M206.993 104.744 C 201.588 116.435,193.364 130.500,188.718 136.000 L 180.270 146.000 183.696 133.558 C 187.662 119.151,193.917 106.591,205.003 90.770 C 216.970 73.692,218.001 80.935,206.993 104.744 " stroke="none" fill="#000000" fill-rule="evenodd"></path>
    </g>
</svg>